<svg xmlns="http://www.w3.org/2000/svg" width="1120" height="560" viewBox="0 0 1120 560">
<rect width="100%" height="100%" fill="white"/>
<style>text{font-family:Arial, Helvetica, sans-serif; fill:#111827;}</style>
<text x="560" y="34" text-anchor="middle" font-size="21" font-weight="700">Newton-third-law force-kernel trade-off</text>
<text x="560" y="58" text-anchor="middle" font-size="12" fill="#4b5563">Direct does more pair work but parallelises cleanly; Newton halves pair evaluations but needs conflict resolution when parallelised.</text>
<text x="298.0" y="100.0" text-anchor="middle" font-size="16" font-weight="700">Force time</text>
<line x1="88" y1="428" x2="508" y2="428" stroke="#222"/>
<line x1="88" y1="118" x2="88" y2="428" stroke="#222"/>
<text x="40.0" y="273.0" transform="rotate(-90 40.0,273.0)" text-anchor="middle" font-size="12">seconds</text>
<text x="298.0" y="472.0" text-anchor="middle" font-size="12">OpenMP threads</text>
<line x1="88" y1="428.0" x2="508" y2="428.0" stroke="#e5e7eb"/>
<text x="80.0" y="432.0" text-anchor="end" font-size="10">0</text>
<line x1="88" y1="366.0" x2="508" y2="366.0" stroke="#e5e7eb"/>
<text x="80.0" y="370.0" text-anchor="end" font-size="10">8.5</text>
<line x1="88" y1="304.0" x2="508" y2="304.0" stroke="#e5e7eb"/>
<text x="80.0" y="308.0" text-anchor="end" font-size="10">17</text>
<line x1="88" y1="242.0" x2="508" y2="242.0" stroke="#e5e7eb"/>
<text x="80.0" y="246.0" text-anchor="end" font-size="10">25</text>
<line x1="88" y1="180.0" x2="508" y2="180.0" stroke="#e5e7eb"/>
<text x="80.0" y="184.0" text-anchor="end" font-size="10">34</text>
<line x1="88" y1="118.0" x2="508" y2="118.0" stroke="#e5e7eb"/>
<text x="80.0" y="122.0" text-anchor="end" font-size="10">42</text>
<text x="140.5" y="450.0" text-anchor="middle" font-size="11">1</text>
<rect x="100.1" y="371.6" width="16.6" height="56.4" fill="#2563eb"/>
<rect x="120.3" y="379.3" width="16.6" height="48.7" fill="#16a34a"/>
<rect x="140.5" y="379.7" width="16.6" height="48.3" fill="#ca8a04"/>
<rect x="160.7" y="158.4" width="16.6" height="269.6" fill="#dc2626"/>
<text x="245.5" y="450.0" text-anchor="middle" font-size="11">2</text>
<rect x="205.1" y="399.8" width="16.6" height="28.2" fill="#2563eb"/>
<rect x="225.3" y="379.4" width="16.6" height="48.6" fill="#16a34a"/>
<rect x="245.5" y="391.9" width="16.6" height="36.1" fill="#ca8a04"/>
<rect x="265.7" y="208.6" width="16.6" height="219.4" fill="#dc2626"/>
<text x="350.5" y="450.0" text-anchor="middle" font-size="11">4</text>
<rect x="310.1" y="399.6" width="16.6" height="28.4" fill="#2563eb"/>
<rect x="330.3" y="379.4" width="16.6" height="48.6" fill="#16a34a"/>
<rect x="350.5" y="403.0" width="16.6" height="25.0" fill="#ca8a04"/>
<rect x="370.7" y="219.7" width="16.6" height="208.3" fill="#dc2626"/>
<text x="455.5" y="450.0" text-anchor="middle" font-size="11">8</text>
<rect x="415.1" y="398.8" width="16.6" height="29.2" fill="#2563eb"/>
<rect x="435.3" y="379.3" width="16.6" height="48.7" fill="#16a34a"/>
<rect x="455.5" y="402.5" width="16.6" height="25.5" fill="#ca8a04"/>
<rect x="475.7" y="192.8" width="16.6" height="235.2" fill="#dc2626"/>
<rect x="358.0" y="126.0" width="10.0" height="10.0" fill="#2563eb"/>
<text x="374.0" y="136.0" font-size="11">direct</text>
<rect x="358.0" y="144.0" width="10.0" height="10.0" fill="#16a34a"/>
<text x="374.0" y="154.0" font-size="11">newton</text>
<rect x="358.0" y="162.0" width="10.0" height="10.0" fill="#ca8a04"/>
<text x="374.0" y="172.0" font-size="11">newton-private</text>
<rect x="358.0" y="180.0" width="10.0" height="10.0" fill="#dc2626"/>
<text x="374.0" y="190.0" font-size="11">newton-atomic</text>
<text x="832.0" y="100.0" text-anchor="middle" font-size="16" font-weight="700">Speedup relative to direct</text>
<line x1="622" y1="428" x2="1042" y2="428" stroke="#222"/>
<line x1="622" y1="118" x2="622" y2="428" stroke="#222"/>
<text x="574.0" y="273.0" transform="rotate(-90 574.0,273.0)" text-anchor="middle" font-size="12">Speedup factor = T_direct / T_kernel</text>
<text x="832.0" y="472.0" text-anchor="middle" font-size="12">OpenMP threads</text>
<line x1="622" y1="428.0" x2="1042" y2="428.0" stroke="#e5e7eb"/>
<text x="614.0" y="432.0" text-anchor="end" font-size="10">0</text>
<line x1="622" y1="366.0" x2="1042" y2="366.0" stroke="#e5e7eb"/>
<text x="614.0" y="370.0" text-anchor="end" font-size="10">0.42</text>
<line x1="622" y1="304.0" x2="1042" y2="304.0" stroke="#e5e7eb"/>
<text x="614.0" y="308.0" text-anchor="end" font-size="10">0.84</text>
<line x1="622" y1="242.0" x2="1042" y2="242.0" stroke="#e5e7eb"/>
<text x="614.0" y="246.0" text-anchor="end" font-size="10">1.3</text>
<line x1="622" y1="180.0" x2="1042" y2="180.0" stroke="#e5e7eb"/>
<text x="614.0" y="184.0" text-anchor="end" font-size="10">1.7</text>
<line x1="622" y1="118.0" x2="1042" y2="118.0" stroke="#e5e7eb"/>
<text x="614.0" y="122.0" text-anchor="end" font-size="10">2.1</text>
<text x="674.5" y="450.0" text-anchor="middle" font-size="11">1</text>
<rect x="637.0" y="256.8" width="20.5" height="171.2" fill="#16a34a"/>
<rect x="662.0" y="255.6" width="20.5" height="172.4" fill="#ca8a04"/>
<rect x="687.0" y="397.1" width="20.5" height="30.9" fill="#dc2626"/>
<text x="779.5" y="450.0" text-anchor="middle" font-size="11">2</text>
<rect x="742.0" y="342.2" width="20.5" height="85.8" fill="#16a34a"/>
<rect x="767.0" y="312.7" width="20.5" height="115.3" fill="#ca8a04"/>
<rect x="792.0" y="409.0" width="20.5" height="19.0" fill="#dc2626"/>
<text x="884.5" y="450.0" text-anchor="middle" font-size="11">4</text>
<rect x="847.0" y="341.7" width="20.5" height="86.3" fill="#16a34a"/>
<rect x="872.0" y="259.9" width="20.5" height="168.1" fill="#ca8a04"/>
<rect x="897.0" y="407.9" width="20.5" height="20.1" fill="#dc2626"/>
<text x="989.5" y="450.0" text-anchor="middle" font-size="11">8</text>
<rect x="952.0" y="339.6" width="20.5" height="88.4" fill="#16a34a"/>
<rect x="977.0" y="259.3" width="20.5" height="168.7" fill="#ca8a04"/>
<rect x="1002.0" y="409.7" width="20.5" height="18.3" fill="#dc2626"/>
<rect x="892.0" y="126.0" width="10.0" height="10.0" fill="#16a34a"/>
<text x="908.0" y="136.0" font-size="11">newton</text>
<rect x="892.0" y="144.0" width="10.0" height="10.0" fill="#ca8a04"/>
<text x="908.0" y="154.0" font-size="11">newton-private</text>
<rect x="892.0" y="162.0" width="10.0" height="10.0" fill="#dc2626"/>
<text x="908.0" y="172.0" font-size="11">newton-atomic</text>
<line x1="622" y1="132.8" x2="1042" y2="132.8" stroke="#9ca3af" stroke-dasharray="5 5"/>
<text x="930" y="124.8" font-size="11" fill="#6b7280">ideal Newton 2x</text>
<line x1="622" y1="280.4" x2="1042" y2="280.4" stroke="#6b7280" stroke-dasharray="4 4"/>
<text x="910" y="272.4" font-size="11" fill="#4b5563">direct baseline 1x</text>
</svg>
