<svg xmlns="http://www.w3.org/2000/svg" width="1040" height="530" viewBox="0 0 1040 530">
<rect width="100%" height="100%" fill="white"/>
<style>text{font-family:Arial, Helvetica, sans-serif; fill:#111827;}</style>
<text x="520" y="34" text-anchor="middle" font-size="21" font-weight="700">Isolated reciprocal square-root operation</text>
<text x="520" y="58" text-anchor="middle" font-size="12" fill="#4b5563">Operation-level AVX rsqrt microbenchmark, not full-solver speedup. Left/up is better.</text>
<line x1="122.0" y1="442.0" x2="892.0" y2="442.0" stroke="#222"/>
<line x1="122.0" y1="112.0" x2="122.0" y2="442.0" stroke="#222"/>
<text x="507.0" y="494.0" text-anchor="middle" font-size="12">maximum relative error, log scale</text>
<text x="60.0" y="277.0" transform="rotate(-90 60.0,277.0)" text-anchor="middle" font-size="12">operation speedup vs scalar sqrtf</text>
<line x1="122.0" y1="427.0" x2="892.0" y2="427.0" stroke="#9ca3af" stroke-dasharray="6 5"/>
<text x="888.0" y="419.0" text-anchor="end" font-size="11" fill="#6b7280">sqrtf baseline 1x</text>
<line x1="122.0" y1="112.0" x2="122.0" y2="442.0" stroke="#e5e7eb"/>
<text x="122.0" y="464.0" text-anchor="middle" font-size="10">1e-8</text>
<line x1="276.0" y1="112.0" x2="276.0" y2="442.0" stroke="#e5e7eb"/>
<text x="276.0" y="464.0" text-anchor="middle" font-size="10">1e-7</text>
<line x1="430.0" y1="112.0" x2="430.0" y2="442.0" stroke="#e5e7eb"/>
<text x="430.0" y="464.0" text-anchor="middle" font-size="10">1e-6</text>
<line x1="584.0" y1="112.0" x2="584.0" y2="442.0" stroke="#e5e7eb"/>
<text x="584.0" y="464.0" text-anchor="middle" font-size="10">1e-5</text>
<line x1="738.0" y1="112.0" x2="738.0" y2="442.0" stroke="#e5e7eb"/>
<text x="738.0" y="464.0" text-anchor="middle" font-size="10">1e-4</text>
<line x1="892.0" y1="112.0" x2="892.0" y2="442.0" stroke="#e5e7eb"/>
<text x="892.0" y="464.0" text-anchor="middle" font-size="10">1e-3</text>
<line x1="122.0" y1="442.0" x2="892.0" y2="442.0" stroke="#e5e7eb"/>
<text x="114.0" y="446.0" text-anchor="end" font-size="10">0</text>
<line x1="122.0" y1="427.0" x2="892.0" y2="427.0" stroke="#e5e7eb"/>
<text x="114.0" y="431.0" text-anchor="end" font-size="10">1x</text>
<line x1="122.0" y1="367.0" x2="892.0" y2="367.0" stroke="#e5e7eb"/>
<text x="114.0" y="371.0" text-anchor="end" font-size="10">5x</text>
<line x1="122.0" y1="292.0" x2="892.0" y2="292.0" stroke="#e5e7eb"/>
<text x="114.0" y="296.0" text-anchor="end" font-size="10">10x</text>
<line x1="122.0" y1="217.1" x2="892.0" y2="217.1" stroke="#e5e7eb"/>
<text x="114.0" y="221.1" text-anchor="end" font-size="10">15x</text>
<line x1="122.0" y1="142.1" x2="892.0" y2="142.1" stroke="#e5e7eb"/>
<text x="114.0" y="146.1" text-anchor="end" font-size="10">20x</text>
<circle cx="268.5" cy="427.0" r="6.5" fill="#2563eb" stroke="white" stroke-width="1.5"/>
<text x="278.5" y="445.0" font-size="12" font-weight="700">sqrtf</text>
<circle cx="801.4" cy="136.4" r="6.5" fill="#16a34a" stroke="white" stroke-width="1.5"/>
<text x="811.4" y="126.4" font-size="12" font-weight="700">rsqrt0</text>
<circle cx="312.1" cy="142.8" r="6.5" fill="#ca8a04" stroke="white" stroke-width="1.5"/>
<text x="322.1" y="132.8" font-size="12" font-weight="700">rsqrt1</text>
<circle cx="286.6" cy="244.1" r="6.5" fill="#dc2626" stroke="white" stroke-width="1.5"/>
<text x="296.6" y="262.1" font-size="12" font-weight="700">rsqrt2</text>
</svg>
