<svg xmlns="http://www.w3.org/2000/svg" width="1100" height="560" viewBox="0 0 1100 560">
<rect width="100%" height="100%" fill="white"/>
<style>text{font-family:Arial, Helvetica, sans-serif; fill:#111827;}</style>
<text x="550.0" y="34" text-anchor="middle" font-size="21" font-weight="700">Strong scaling speedup</text>
<text x="550.0" y="58" text-anchor="middle" font-size="12" fill="#4b5563">Strong scaling: fixed N. Amdahl effects appear as the measured curve bends below ideal speedup.</text>
<text x="297.0" y="96.0" text-anchor="middle" font-size="16" font-weight="700">Speedup</text>
<line x1="82" y1="442" x2="512" y2="442" stroke="#222"/>
<line x1="82" y1="112" x2="82" y2="442" stroke="#222"/>
<text x="297.0" y="484.0" text-anchor="middle" font-size="13">Total workers</text>
<text x="34.0" y="277.0" transform="rotate(-90 34.0,277.0)" text-anchor="middle" font-size="13">Speedup</text>
<line x1="82" y1="442.0" x2="512" y2="442.0" stroke="#e5e7eb"/>
<text x="74.0" y="446.0" text-anchor="end" font-size="11">0</text>
<line x1="82" y1="376.0" x2="512" y2="376.0" stroke="#e5e7eb"/>
<text x="74.0" y="380.0" text-anchor="end" font-size="11">2</text>
<line x1="82" y1="310.0" x2="512" y2="310.0" stroke="#e5e7eb"/>
<text x="74.0" y="314.0" text-anchor="end" font-size="11">4</text>
<line x1="82" y1="244.0" x2="512" y2="244.0" stroke="#e5e7eb"/>
<text x="74.0" y="248.0" text-anchor="end" font-size="11">6</text>
<line x1="82" y1="178.0" x2="512" y2="178.0" stroke="#e5e7eb"/>
<text x="74.0" y="182.0" text-anchor="end" font-size="11">8</text>
<line x1="82" y1="112.0" x2="512" y2="112.0" stroke="#e5e7eb"/>
<text x="74.0" y="116.0" text-anchor="end" font-size="11">10</text>
<line x1="82.0" y1="442" x2="82.0" y2="447" stroke="#222"/>
<text x="82.0" y="464.0" text-anchor="middle" font-size="11">1</text>
<line x1="143.4" y1="442" x2="143.4" y2="447" stroke="#222"/>
<text x="143.4" y="464.0" text-anchor="middle" font-size="11">2</text>
<line x1="266.3" y1="442" x2="266.3" y2="447" stroke="#222"/>
<text x="266.3" y="464.0" text-anchor="middle" font-size="11">4</text>
<line x1="512.0" y1="442" x2="512.0" y2="447" stroke="#222"/>
<text x="512.0" y="464.0" text-anchor="middle" font-size="11">8</text>
<polyline points="82.00,409.00 143.43,376.00 266.29,310.00 512.00,178.00" fill="none" stroke="#9ca3af" stroke-width="2.5"/>
<polyline points="82.00,409.00 143.43,377.00 266.29,313.15 512.00,186.41" fill="none" stroke="#2563eb" stroke-width="2.5"/>
<circle cx="82.00" cy="409.00" r="4" fill="#2563eb"/>
<circle cx="143.43" cy="377.00" r="4" fill="#2563eb"/>
<circle cx="266.29" cy="313.15" r="4" fill="#2563eb"/>
<circle cx="512.00" cy="186.41" r="4" fill="#2563eb"/>
<text x="432.0" y="134.0" font-size="12" fill="#2563eb">measured</text>
<text x="432.0" y="152.0" font-size="12" fill="#6b7280">ideal</text>
<text x="837.0" y="96.0" text-anchor="middle" font-size="16" font-weight="700">Efficiency</text>
<line x1="622" y1="442" x2="1052" y2="442" stroke="#222"/>
<line x1="622" y1="112" x2="622" y2="442" stroke="#222"/>
<text x="837.0" y="484.0" text-anchor="middle" font-size="13">Total workers</text>
<text x="574.0" y="277.0" transform="rotate(-90 574.0,277.0)" text-anchor="middle" font-size="13">Parallel efficiency</text>
<line x1="622" y1="442.0" x2="1052" y2="442.0" stroke="#e5e7eb"/>
<text x="614.0" y="446.0" text-anchor="end" font-size="11">0</text>
<line x1="622" y1="376.0" x2="1052" y2="376.0" stroke="#e5e7eb"/>
<text x="614.0" y="380.0" text-anchor="end" font-size="11">0.22</text>
<line x1="622" y1="310.0" x2="1052" y2="310.0" stroke="#e5e7eb"/>
<text x="614.0" y="314.0" text-anchor="end" font-size="11">0.44</text>
<line x1="622" y1="244.0" x2="1052" y2="244.0" stroke="#e5e7eb"/>
<text x="614.0" y="248.0" text-anchor="end" font-size="11">0.66</text>
<line x1="622" y1="178.0" x2="1052" y2="178.0" stroke="#e5e7eb"/>
<text x="614.0" y="182.0" text-anchor="end" font-size="11">0.88</text>
<line x1="622" y1="112.0" x2="1052" y2="112.0" stroke="#e5e7eb"/>
<text x="614.0" y="116.0" text-anchor="end" font-size="11">1.1</text>
<line x1="622.0" y1="442" x2="622.0" y2="447" stroke="#222"/>
<text x="622.0" y="464.0" text-anchor="middle" font-size="11">1</text>
<line x1="683.4" y1="442" x2="683.4" y2="447" stroke="#222"/>
<text x="683.4" y="464.0" text-anchor="middle" font-size="11">2</text>
<line x1="806.3" y1="442" x2="806.3" y2="447" stroke="#222"/>
<text x="806.3" y="464.0" text-anchor="middle" font-size="11">4</text>
<line x1="1052.0" y1="442" x2="1052.0" y2="447" stroke="#222"/>
<text x="1052.0" y="464.0" text-anchor="middle" font-size="11">8</text>
<polyline points="622.00,142.00 683.43,142.00 806.29,142.00 1052.00,142.00" fill="none" stroke="#9ca3af" stroke-width="2.5"/>
<polyline points="622.00,142.00 683.43,146.56 806.29,149.15 1052.00,151.55" fill="none" stroke="#2563eb" stroke-width="2.5"/>
<circle cx="622.00" cy="142.00" r="4" fill="#2563eb"/>
<circle cx="683.43" cy="146.56" r="4" fill="#2563eb"/>
<circle cx="806.29" cy="149.15" r="4" fill="#2563eb"/>
<circle cx="1052.00" cy="151.55" r="4" fill="#2563eb"/>
<text x="972.0" y="134.0" font-size="12" fill="#2563eb">measured</text>
<text x="972.0" y="152.0" font-size="12" fill="#6b7280">ideal</text>
</svg>
