<svg xmlns="http://www.w3.org/2000/svg" width="1560" height="560" viewBox="0 0 1560 560">
<rect width="100%" height="100%" fill="white"/>
<style>text{font-family:Arial, Helvetica, sans-serif; fill:#111827;}</style>
<text x="780.0" y="34" text-anchor="middle" font-size="21" font-weight="700">Weak scaling scaled speedup</text>
<text x="780.0" y="58" text-anchor="middle" font-size="12" fill="#4b5563">Weak scaling: fixed Nlocal per MPI rank. Gustafson-style scaled speedup is shown; efficiency loss indicates communication and runtime overheads.</text>
<text x="277.0" y="96.0" text-anchor="middle" font-size="16" font-weight="700">Speedup</text>
<line x1="82" y1="442" x2="472" y2="442" stroke="#222"/>
<line x1="82" y1="112" x2="82" y2="442" stroke="#222"/>
<text x="277.0" y="484.0" text-anchor="middle" font-size="13">Total workers</text>
<text x="34.0" y="277.0" transform="rotate(-90 34.0,277.0)" text-anchor="middle" font-size="13">Speedup</text>
<line x1="82" y1="442.0" x2="472" y2="442.0" stroke="#e5e7eb"/>
<text x="74.0" y="446.0" text-anchor="end" font-size="11">0</text>
<line x1="82" y1="376.0" x2="472" y2="376.0" stroke="#e5e7eb"/>
<text x="74.0" y="380.0" text-anchor="end" font-size="11">2</text>
<line x1="82" y1="310.0" x2="472" y2="310.0" stroke="#e5e7eb"/>
<text x="74.0" y="314.0" text-anchor="end" font-size="11">4</text>
<line x1="82" y1="244.0" x2="472" y2="244.0" stroke="#e5e7eb"/>
<text x="74.0" y="248.0" text-anchor="end" font-size="11">6</text>
<line x1="82" y1="178.0" x2="472" y2="178.0" stroke="#e5e7eb"/>
<text x="74.0" y="182.0" text-anchor="end" font-size="11">8</text>
<line x1="82" y1="112.0" x2="472" y2="112.0" stroke="#e5e7eb"/>
<text x="74.0" y="116.0" text-anchor="end" font-size="11">10</text>
<line x1="82.0" y1="442" x2="82.0" y2="447" stroke="#222"/>
<text x="82.0" y="464.0" text-anchor="middle" font-size="11">1</text>
<line x1="137.7" y1="442" x2="137.7" y2="447" stroke="#222"/>
<text x="137.7" y="464.0" text-anchor="middle" font-size="11">2</text>
<line x1="249.1" y1="442" x2="249.1" y2="447" stroke="#222"/>
<text x="249.1" y="464.0" text-anchor="middle" font-size="11">4</text>
<line x1="472.0" y1="442" x2="472.0" y2="447" stroke="#222"/>
<text x="472.0" y="464.0" text-anchor="middle" font-size="11">8</text>
<polyline points="82.00,409.00 137.71,376.00 249.14,310.00 472.00,178.00" fill="none" stroke="#9ca3af" stroke-width="2.5"/>
<polyline points="82.00,409.00 137.71,377.13 249.14,313.52 472.00,186.10" fill="none" stroke="#2563eb" stroke-width="2.5"/>
<circle cx="82.00" cy="409.00" r="4" fill="#2563eb"/>
<circle cx="137.71" cy="377.13" r="4" fill="#2563eb"/>
<circle cx="249.14" cy="313.52" r="4" fill="#2563eb"/>
<circle cx="472.00" cy="186.10" r="4" fill="#2563eb"/>
<text x="392.0" y="134.0" font-size="12" fill="#2563eb">measured</text>
<text x="392.0" y="152.0" font-size="12" fill="#6b7280">ideal</text>
<text x="765.0" y="96.0" text-anchor="middle" font-size="16" font-weight="700">Efficiency</text>
<line x1="570" y1="442" x2="960" y2="442" stroke="#222"/>
<line x1="570" y1="112" x2="570" y2="442" stroke="#222"/>
<text x="765.0" y="484.0" text-anchor="middle" font-size="13">Total workers</text>
<text x="522.0" y="277.0" transform="rotate(-90 522.0,277.0)" text-anchor="middle" font-size="13">Parallel efficiency</text>
<line x1="570" y1="442.0" x2="960" y2="442.0" stroke="#e5e7eb"/>
<text x="562.0" y="446.0" text-anchor="end" font-size="11">0</text>
<line x1="570" y1="376.0" x2="960" y2="376.0" stroke="#e5e7eb"/>
<text x="562.0" y="380.0" text-anchor="end" font-size="11">0.22</text>
<line x1="570" y1="310.0" x2="960" y2="310.0" stroke="#e5e7eb"/>
<text x="562.0" y="314.0" text-anchor="end" font-size="11">0.44</text>
<line x1="570" y1="244.0" x2="960" y2="244.0" stroke="#e5e7eb"/>
<text x="562.0" y="248.0" text-anchor="end" font-size="11">0.66</text>
<line x1="570" y1="178.0" x2="960" y2="178.0" stroke="#e5e7eb"/>
<text x="562.0" y="182.0" text-anchor="end" font-size="11">0.88</text>
<line x1="570" y1="112.0" x2="960" y2="112.0" stroke="#e5e7eb"/>
<text x="562.0" y="116.0" text-anchor="end" font-size="11">1.1</text>
<line x1="570.0" y1="442" x2="570.0" y2="447" stroke="#222"/>
<text x="570.0" y="464.0" text-anchor="middle" font-size="11">1</text>
<line x1="625.7" y1="442" x2="625.7" y2="447" stroke="#222"/>
<text x="625.7" y="464.0" text-anchor="middle" font-size="11">2</text>
<line x1="737.1" y1="442" x2="737.1" y2="447" stroke="#222"/>
<text x="737.1" y="464.0" text-anchor="middle" font-size="11">4</text>
<line x1="960.0" y1="442" x2="960.0" y2="447" stroke="#222"/>
<text x="960.0" y="464.0" text-anchor="middle" font-size="11">8</text>
<polyline points="570.00,142.00 625.71,142.00 737.14,142.00 960.00,142.00" fill="none" stroke="#9ca3af" stroke-width="2.5"/>
<polyline points="570.00,142.00 625.71,147.13 737.14,150.01 960.00,151.21" fill="none" stroke="#2563eb" stroke-width="2.5"/>
<circle cx="570.00" cy="142.00" r="4" fill="#2563eb"/>
<circle cx="625.71" cy="147.13" r="4" fill="#2563eb"/>
<circle cx="737.14" cy="150.01" r="4" fill="#2563eb"/>
<circle cx="960.00" cy="151.21" r="4" fill="#2563eb"/>
<text x="880.0" y="134.0" font-size="12" fill="#2563eb">measured</text>
<text x="880.0" y="152.0" font-size="12" fill="#6b7280">ideal</text>
<text x="1253.0" y="96.0" text-anchor="middle" font-size="16" font-weight="700">Communication fraction</text>
<line x1="1058" y1="442" x2="1448" y2="442" stroke="#222"/>
<line x1="1058" y1="112" x2="1058" y2="442" stroke="#222"/>
<text x="1253.0" y="484.0" text-anchor="middle" font-size="13">Total workers</text>
<text x="1010.0" y="277.0" transform="rotate(-90 1010.0,277.0)" text-anchor="middle" font-size="13">Communication / total</text>
<line x1="1058" y1="442.0" x2="1448" y2="442.0" stroke="#e5e7eb"/>
<text x="1050.0" y="446.0" text-anchor="end" font-size="11">0</text>
<line x1="1058" y1="376.0" x2="1448" y2="376.0" stroke="#e5e7eb"/>
<text x="1050.0" y="380.0" text-anchor="end" font-size="11">0.2</text>
<line x1="1058" y1="310.0" x2="1448" y2="310.0" stroke="#e5e7eb"/>
<text x="1050.0" y="314.0" text-anchor="end" font-size="11">0.4</text>
<line x1="1058" y1="244.0" x2="1448" y2="244.0" stroke="#e5e7eb"/>
<text x="1050.0" y="248.0" text-anchor="end" font-size="11">0.6</text>
<line x1="1058" y1="178.0" x2="1448" y2="178.0" stroke="#e5e7eb"/>
<text x="1050.0" y="182.0" text-anchor="end" font-size="11">0.8</text>
<line x1="1058" y1="112.0" x2="1448" y2="112.0" stroke="#e5e7eb"/>
<text x="1050.0" y="116.0" text-anchor="end" font-size="11">1</text>
<line x1="1058.0" y1="442" x2="1058.0" y2="447" stroke="#222"/>
<text x="1058.0" y="464.0" text-anchor="middle" font-size="11">1</text>
<line x1="1113.7" y1="442" x2="1113.7" y2="447" stroke="#222"/>
<text x="1113.7" y="464.0" text-anchor="middle" font-size="11">2</text>
<line x1="1225.1" y1="442" x2="1225.1" y2="447" stroke="#222"/>
<text x="1225.1" y="464.0" text-anchor="middle" font-size="11">4</text>
<line x1="1448.0" y1="442" x2="1448.0" y2="447" stroke="#222"/>
<text x="1448.0" y="464.0" text-anchor="middle" font-size="11">8</text>
<polyline points="1058.00,442.00 1113.71,442.00 1225.14,442.00 1448.00,442.00" fill="none" stroke="#9ca3af" stroke-width="2.5"/>
<polyline points="1058.00,442.00 1113.71,441.58 1225.14,430.24 1448.00,424.78" fill="none" stroke="#2563eb" stroke-width="2.5"/>
<circle cx="1058.00" cy="442.00" r="4" fill="#2563eb"/>
<circle cx="1113.71" cy="441.58" r="4" fill="#2563eb"/>
<circle cx="1225.14" cy="430.24" r="4" fill="#2563eb"/>
<circle cx="1448.00" cy="424.78" r="4" fill="#2563eb"/>
<text x="1368.0" y="134.0" font-size="12" fill="#2563eb">measured</text>
<text x="1368.0" y="152.0" font-size="12" fill="#6b7280">ideal</text>
</svg>
